<?xml version="1.0" encoding="utf-8"?>
<!-- Generator: Adobe Illustrator 25.2.3, SVG Export Plug-In . SVG Version: 6.00 Build 0)  -->
<svg version="1.1" id="Layer_1" xmlns="http://www.w3.org/2000/svg" xmlns:xlink="http://www.w3.org/1999/xlink" x="0px" y="0px"
	 viewBox="0 0 265.6 265.59" style="enable-background:new 0 0 265.6 265.59;" xml:space="preserve">
<g>
	<g>
		<path d="M133.81,0C59.91,0,0,59.45,0,132.8c0,73.34,59.91,132.79,133.81,132.79c40.08,0,76.02-17.51,100.54-45.23
			c0.29-0.31,0.29-0.78,0-1.1c-0.27-0.32-0.75-0.38-1.1-0.14c-10.21,6.85-21.98,11.86-34.65,14.9v-0.13l-4.69,0.33
			c-1.46,0.11-2.91,0.22-4.41,0.22c-44.03,0-79.85-35.56-79.85-79.26c0-26.68,13.42-51.19,35.86-65.92
			c1.2,6.68-0.05,13.65-2.91,18.92c-0.08,0.15-0.07,0.34,0.04,0.47c0.11,0.13,0.29,0.19,0.45,0.14c11-2.98,21.08,0.09,26.34,6.36
			c4.81,5.7,6.4,13.36,3,22.26c-0.22,0.57-0.44,1.13-0.65,1.65c-1.59,3.92-4.09,7.35-7.3,10.11c-2.17,1.85-3.53,4.59-3.53,7.65
			c0,5.6,4.58,10.14,10.23,10.14c5.11,0,9.63-3.82,10.12-9.1c0.04-0.39,0.15-0.77,0.2-1.16c0.68-10.37,9.29-18.6,19.91-18.6
			c8.13,0,15.08,4.84,18.2,11.77c0.15,0.33,0.29,0.72,0.42,1.12c0.04,0.09,0.14,0.15,0.23,0.12c0.09-0.02,0.15-0.11,0.15-0.2
			c-0.05-0.39-0.08-0.77-0.08-1.35c-0.04-9.87,8.48-19.47,20.05-19.47c10.3,0,18.74,7.74,19.84,17.68c0.01,0.15,0.14,0.27,0.29,0.29
			c0.15,0.02,0.3-0.07,0.35-0.21C282.73,91.13,226.99,0,133.81,0z M102.68,155.19c0,37.9,24.8,70.1,59.13,81.61
			c-27.47-2.48-51.73-14.65-68.4-32.7c-55.01-59.58-6.44-141.85,33.68-133.92c3.24,0.64,6.41,1.94,9.44,4.17
			c3.08,2.27,5.28,5.01,6.81,7.98l-0.49,0.31C117.7,98.56,102.68,125.68,102.68,155.19z"/>
	</g>
</g>
</svg>
