<svg xmlns="http://www.w3.org/2000/svg" xmlns:xlink="http://www.w3.org/1999/xlink" viewBox="0 0 265.59 265.59"><defs><style>.cls-1{fill:#0077c8;}.cls-2{fill:url(#무제_그라디언트_2);}</style><linearGradient id="무제_그라디언트_2" x1="128.16" y1="110.35" x2="132.08" y2="200.53" gradientUnits="userSpaceOnUse"><stop offset="0" stop-color="#e6f5fc"/><stop offset="1" stop-color="#56b7e6"/></linearGradient></defs><g id="레이어_2" data-name="레이어 2"><g id="Layer_1" data-name="Layer 1"><path class="cls-1" d="M133.81,0C59.91,0,0,59.45,0,132.8S59.91,265.59,133.81,265.59a133.87,133.87,0,0,0,100.54-45.22.84.84,0,0,0,0-1.11.87.87,0,0,0-1.11-.14,107.5,107.5,0,0,1-38.73,15.93c-1.92.14-3.81.32-5.76.32-45.26,0-81.95-36.43-81.95-81.34a80.91,80.91,0,0,1,37.93-68.47,29.3,29.3,0,0,1-2.14,22.63.42.42,0,0,0,0,.47.41.41,0,0,0,.45.15c11-3,21.08.09,26.35,6.36,4.8,5.7,6.39,13.36,3,22.26-.22.57-.43,1.13-.65,1.65a26.49,26.49,0,0,1-7.31,10.11,10,10,0,0,0-3.52,7.65,10.21,10.21,0,0,0,20.35,1c0-.4.15-.77.2-1.17a20,20,0,0,1,38.1-6.83.4.4,0,0,0,.43.22.39.39,0,0,0,.3-.38v-.15c0-9.87,8.48-19.47,20-19.47a19.92,19.92,0,0,1,19.84,17.68.34.34,0,0,0,.3.29.33.33,0,0,0,.35-.21C282.73,91.13,227,0,133.81,0Z"/><path class="cls-2" d="M188.75,235.37c-45.26,0-81.95-36.43-81.95-81.34a80.91,80.91,0,0,1,37.93-68.47,22.82,22.82,0,0,0-8.2-11.21,23.29,23.29,0,0,0-9.43-4.17C87,62.24,38.41,144.51,93.41,204.09c18.74,20.3,47.06,33.23,78.75,33.23a113,113,0,0,0,22.35-2.27C192.6,235.19,190.7,235.37,188.75,235.37Z"/></g></g></svg>