<?xml version="1.0" encoding="utf-8"?>
<!-- Generator: Adobe Illustrator 25.3.0, SVG Export Plug-In . SVG Version: 6.00 Build 0)  -->
<svg version="1.1" id="Layer_1" xmlns="http://www.w3.org/2000/svg" xmlns:xlink="http://www.w3.org/1999/xlink" x="0px" y="0px"
	 viewBox="0 0 386.1 354.7" style="enable-background:new 0 0 386.1 354.7;" xml:space="preserve">
<style type="text/css">
	.st0{fill:#FFFFFF;}
</style>
<g>
	<path d="M193,0C86.4,0,0,68.3,0,152.6c0,54.9,36.6,102.9,91.6,129.8c-4,15.1-14.6,54.6-16.7,63.1c-2.6,10.5,3.9,10.4,8.1,7.5
		c3.3-2.2,52.9-35.9,74.3-50.5c11.6,1.7,23.6,2.6,35.8,2.6c106.6,0,193-68.3,193-152.6C386.1,68.3,299.6,0,193,0"/>
	<g>
		<path class="st0" d="M115.4,107.7H58.9c-5.3,0-9.6,4.3-9.6,9.6c0,5.3,4.3,9.6,9.6,9.6h18.4v67.6c0,2.5,1,4.9,2.8,6.6
			c1.7,1.7,4.1,2.7,6.6,2.7h2.1c2.5,0,4.9-1,6.6-2.7c1.8-1.8,2.8-4.2,2.8-6.6v-67.6h17.3c5.3,0,9.6-4.3,9.6-9.6
			C125,112,120.7,107.7,115.4,107.7z"/>
		<path class="st0" d="M251,185.8h-26.2v-69.1c0-5.8-4.7-10.4-10.4-10.4c-5.8,0-10.4,4.7-10.4,10.4v74.4c0,0.6,0.1,1.1,0.2,1.7
			c-0.1,0.5-0.2,1.1-0.2,1.7c0,4.8,3.9,8.7,8.7,8.7H251c4.8,0,8.7-3.9,8.7-8.7C259.7,189.7,255.8,185.8,251,185.8z"/>
		<path class="st0" d="M334.9,189l-29.3-38.4l26.4-26.4c3.6-3.6,3.6-9.4,0-13c-3.6-3.6-9.4-3.6-13,0l-32.7,32.7v-27.1
			c0-5.8-4.7-10.4-10.4-10.4c-5.8,0-10.4,4.7-10.4,10.4v76.7c0,5.8,4.7,10.4,10.4,10.4c5.8,0,10.4-4.7,10.4-10.4v-23.7l5.9-5.9
			l27.7,36.3c3.1,4.1,8.9,5,13,1.9C337.2,198.9,338,193.1,334.9,189z"/>
		<path class="st0" d="M196.1,191.5l-28.1-77c0,0-0.1-0.1-0.1-0.1c-1.8-4.7-7-8.1-13.2-8.1c-6.9,0-12.5,4.2-13.7,9.7
			c-0.2,0.4-0.4,0.8-0.5,1.3l-27.7,74.2c-1.7,4.9,0.9,10.2,5.7,11.9c4.9,1.7,10.2-0.9,11.9-5.7l4.8-13.7h38.5l4.8,13.7
			c1.7,4.9,7,7.4,11.9,5.7C195.3,201.6,197.8,196.3,196.1,191.5z M141.4,166.5l12.9-36.9c0.1,0,0.3,0,0.4,0l12.9,36.9H141.4z"/>
	</g>
</g>
</svg>
