<?xml version="1.0" encoding="utf-8"?>
<!-- Generator: Adobe Illustrator 25.3.0, SVG Export Plug-In . SVG Version: 6.00 Build 0)  -->
<svg version="1.1" id="레이어_1" xmlns="http://www.w3.org/2000/svg" xmlns:xlink="http://www.w3.org/1999/xlink" x="0px"
	 y="0px" viewBox="0 0 192 200" style="enable-background:new 0 0 192 200;" xml:space="preserve">
<style type="text/css">
	.st0{fill:#FFFFFF;}
	.st1{fill-rule:evenodd;clip-rule:evenodd;fill:#545859;}
</style>
<path class="st0" d="M12.1,8.6L123,0.5c13.6-1.2,17.1-0.4,25.7,5.8l35.4,24.9c5.8,4.3,7.8,5.4,7.8,10.1v136.5
	c0,8.6-3.1,13.6-14,14.4L49,199.9c-8.2,0.4-12.1-0.8-16.4-6.2L6.6,159.9C1.9,153.7,0,149,0,143.5V22.2C0,15.2,3.1,9.4,12.1,8.6z"/>
<path class="st1" d="M123,0.5L12.1,8.6C3.1,9.4,0,15.2,0,22.2v121.3c0,5.5,1.9,10.1,6.6,16.3l26.1,33.8c4.3,5.4,8.2,6.6,16.4,6.2
	l128.8-7.8c10.9-0.8,14-5.8,14-14.4V41.3c0-4.4-1.7-5.7-6.9-9.5l-0.9-0.6L148.7,6.3C140.1,0.1,136.6-0.7,123,0.5z M52,39
	c-10.5,0.7-12.9,0.9-18.9-4L17.9,23c-1.5-1.6-0.8-3.5,3.1-3.9l106.6-7.8c8.9-0.8,13.6,2.3,17.1,5.1l18.3,13.2
	c0.8,0.4,2.7,2.7,0.4,2.7L53.3,39L52,39z M39.7,176.6V60.7c0-5.1,1.6-7.4,6.2-7.8l126.5-7.4c4.3-0.4,6.2,2.3,6.2,7.4V168
	c0,5.1-0.8,9.3-7.8,9.7l-121,7C42.8,185.2,39.7,182.8,39.7,176.6z M159.2,66.9c0.8,3.5,0,7-3.5,7.4l-5.8,1.2V161
	c-5.1,2.7-9.7,4.3-13.6,4.3c-6.2,0-7.8-1.9-12.5-7.8L85.6,97.7v57.9l12.1,2.7c0,0,0,7-9.7,7l-26.8,1.6c-0.8-1.6,0-5.4,2.7-6.2l7-1.9
	V82.1l-9.7-0.8c-0.8-3.5,1.2-8.6,6.6-8.9l28.8-1.9l39.7,60.7V77.4l-10.1-1.2c-0.8-4.3,2.3-7.4,6.2-7.8
	C132.3,68.5,159.2,66.9,159.2,66.9z"/>
</svg>
